HIERARCHY
ROOT Hips
{
  OFFSET -1.93004 89.2262 -13.9866
  CHANNELS 6 Xposition Yposition Zposition Zrotation Xrotation Yrotation
  JOINT Spine
  {
    OFFSET 0 9.9235 -1.2273
    CHANNELS 6 Xposition Yposition Zposition Zrotation Xrotation Yrotation
    JOINT Spine1
    {
      OFFSET -0.0001 11.6454 -1.4223
      CHANNELS 6 Xposition Yposition Zposition Zrotation Xrotation Yrotation
      JOINT Spine2
      {
        OFFSET 0.0001 13.3602 -1.6265
        CHANNELS 6 Xposition Yposition Zposition Zrotation Xrotation Yrotation
        JOINT Neck
        {
          OFFSET 0 15.0325 0.7929
          CHANNELS 6 Xposition Yposition Zposition Zrotation Xrotation Yrotation
          JOINT Head
          {
            OFFSET 0 10.3218 3.1424
            CHANNELS 6 Xposition Yposition Zposition Zrotation Xrotation Yrotation
            End Site
            {
              OFFSET 0 0 0
            }
          }
        }
        JOINT LeftShoulder
        {
          OFFSET 6.1058 9.1104 0.7056
          CHANNELS 6 Xposition Yposition Zposition Zrotation Xrotation Yrotation
          JOINT LeftArm
          {
            OFFSET 12.655 -0.2659 -2.6009
            CHANNELS 6 Xposition Yposition Zposition Zrotation Xrotation Yrotation
            JOINT LeftForeArm
            {
              OFFSET 27.4047 0 0
              CHANNELS 6 Xposition Yposition Zposition Zrotation Xrotation Yrotation
              JOINT LeftHand
              {
                OFFSET 27.6145 0 0
                CHANNELS 6 Xposition Yposition Zposition Zrotation Xrotation Yrotation
                JOINT LeftHandMiddle1
                {
                  OFFSET 12.7755 0 0
                  CHANNELS 6 Xposition Yposition Zposition Zrotation Xrotation Yrotation
                  JOINT LeftHandMiddle2
                  {
                    OFFSET 3.614 0 0
                    CHANNELS 6 Xposition Yposition Zposition Zrotation Xrotation Yrotation
                    JOINT LeftHandMiddle3
                    {
                      OFFSET 3.4598 0 0
                      CHANNELS 6 Xposition Yposition Zposition Zrotation Xrotation Yrotation
                      End Site
                      {
                        OFFSET 3.6802 0 0
                      }
                    }
                  }
                }
                JOINT LeftHandThumb1
                {
                  OFFSET 3.7888 -2.167 3.0031
                  CHANNELS 6 Xposition Yposition Zposition Zrotation Xrotation Yrotation
                  JOINT LeftHandThumb2
                  {
                    OFFSET 3.6754 -2.122 2.122
                    CHANNELS 6 Xposition Yposition Zposition Zrotation Xrotation Yrotation
                    JOINT LeftHandThumb3
                    {
                      OFFSET 3.3944 -1.9597 1.9598
                      CHANNELS 6 Xposition Yposition Zposition Zrotation Xrotation Yrotation
                      End Site
                      {
                        OFFSET 2.6794 -1.5469 1.5469
                      }
                    }
                  }
                }
                JOINT LeftHandIndex1
                {
                  OFFSET 12.2666 -0.2317 2.8221
                  CHANNELS 6 Xposition Yposition Zposition Zrotation Xrotation Yrotation
                  JOINT LeftHandIndex2
                  {
                    OFFSET 3.892 0 0
                    CHANNELS 6 Xposition Yposition Zposition Zrotation Xrotation Yrotation
                    JOINT LeftHandIndex3
                    {
                      OFFSET 3.4152 0 0
                      CHANNELS 6 Xposition Yposition Zposition Zrotation Xrotation Yrotation
                      End Site
                      {
                        OFFSET 3.078 0 0
                      }
                    }
                  }
                }
                JOINT LeftHandRing1
                {
                  OFFSET 12.147 0.0099 -2.2166
                  CHANNELS 6 Xposition Yposition Zposition Zrotation Xrotation Yrotation
                  JOINT LeftHandRing2
                  {
                    OFFSET 3.6012 0 0
                    CHANNELS 6 Xposition Yposition Zposition Zrotation Xrotation Yrotation
                    JOINT LeftHandRing3
                    {
                      OFFSET 3.3073 0 0
                      CHANNELS 6 Xposition Yposition Zposition Zrotation Xrotation Yrotation
                      End Site
                      {
                        OFFSET 3.6601 0 0
                      }
                    }
                  }
                }
                JOINT LeftHandPinky1
                {
                  OFFSET 10.9082 -0.2264 -4.7258
                  CHANNELS 6 Xposition Yposition Zposition Zrotation Xrotation Yrotation
                  JOINT LeftHandPinky2
                  {
                    OFFSET 4.1367 0 0
                    CHANNELS 6 Xposition Yposition Zposition Zrotation Xrotation Yrotation
                    JOINT LeftHandPinky3
                    {
                      OFFSET 2.5948 0 0
                      CHANNELS 6 Xposition Yposition Zposition Zrotation Xrotation Yrotation
                      End Site
                      {
                        OFFSET 2.9239 0 0
                      }
                    }
                  }
                }
              }
            }
          }
        }
        JOINT RightShoulder
        {
          OFFSET -6.1057 9.1105 0.7056
          CHANNELS 6 Xposition Yposition Zposition Zrotation Xrotation Yrotation
          JOINT RightArm
          {
            OFFSET -12.655 -0.266 -2.6009
            CHANNELS 6 Xposition Yposition Zposition Zrotation Xrotation Yrotation
            JOINT RightForeArm
            {
              OFFSET -27.4047 0 0
              CHANNELS 6 Xposition Yposition Zposition Zrotation Xrotation Yrotation
              JOINT RightHand
              {
                OFFSET -27.6145 0 0
                CHANNELS 6 Xposition Yposition Zposition Zrotation Xrotation Yrotation
                JOINT RightHandMiddle1
                {
                  OFFSET -12.7755 0 0
                  CHANNELS 6 Xposition Yposition Zposition Zrotation Xrotation Yrotation
                  JOINT RightHandMiddle2
                  {
                    OFFSET -3.614 0 0
                    CHANNELS 6 Xposition Yposition Zposition Zrotation Xrotation Yrotation
                    JOINT RightHandMiddle3
                    {
                      OFFSET -3.4598 0 0
                      CHANNELS 6 Xposition Yposition Zposition Zrotation Xrotation Yrotation
                      End Site
                      {
                        OFFSET -3.6802 0 0
                      }
                    }
                  }
                }
                JOINT RightHandThumb1
                {
                  OFFSET -3.7888 -2.167 3.0031
                  CHANNELS 6 Xposition Yposition Zposition Zrotation Xrotation Yrotation
                  JOINT RightHandThumb2
                  {
                    OFFSET -3.6754 -2.122 2.122
                    CHANNELS 6 Xposition Yposition Zposition Zrotation Xrotation Yrotation
                    JOINT RightHandThumb3
                    {
                      OFFSET -3.3944 -1.9597 1.9598
                      CHANNELS 6 Xposition Yposition Zposition Zrotation Xrotation Yrotation
                      End Site
                      {
                        OFFSET -2.6794 -1.5469 1.5469
                      }
                    }
                  }
                }
                JOINT RightHandIndex1
                {
                  OFFSET -12.2666 -0.2317 2.8221
                  CHANNELS 6 Xposition Yposition Zposition Zrotation Xrotation Yrotation
                  JOINT RightHandIndex2
                  {
                    OFFSET -3.892 0 0
                    CHANNELS 6 Xposition Yposition Zposition Zrotation Xrotation Yrotation
                    JOINT RightHandIndex3
                    {
                      OFFSET -3.4152 0 0
                      CHANNELS 6 Xposition Yposition Zposition Zrotation Xrotation Yrotation
                      End Site
                      {
                        OFFSET -3.078 0 0
                      }
                    }
                  }
                }
                JOINT RightHandRing1
                {
                  OFFSET -12.147 0.0099 -2.2166
                  CHANNELS 6 Xposition Yposition Zposition Zrotation Xrotation Yrotation
                  JOINT RightHandRing2
                  {
                    OFFSET -3.6012 0 0
                    CHANNELS 6 Xposition Yposition Zposition Zrotation Xrotation Yrotation
                    JOINT RightHandRing3
                    {
                      OFFSET -3.3073 0 0
                      CHANNELS 6 Xposition Yposition Zposition Zrotation Xrotation Yrotation
                      End Site
                      {
                        OFFSET -3.6601 0 0
                      }
                    }
                  }
                }
                JOINT RightHandPinky1
                {
                  OFFSET -10.9082 -0.2264 -4.7258
                  CHANNELS 6 Xposition Yposition Zposition Zrotation Xrotation Yrotation
                  JOINT RightHandPinky2
                  {
                    OFFSET -4.1367 0 0
                    CHANNELS 6 Xposition Yposition Zposition Zrotation Xrotation Yrotation
                    JOINT RightHandPinky3
                    {
                      OFFSET -2.5948 0 0
                      CHANNELS 6 Xposition Yposition Zposition Zrotation Xrotation Yrotation
                      End Site
                      {
                        OFFSET -2.9239 0 0
                      }
                    }
                  }
                }
              }
            }
          }
        }
      }
    }
  }
  JOINT RightUpLeg
  {
    OFFSET -9.1245 -6.6564 -0.0554
    CHANNELS 6 Xposition Yposition Zposition Zrotation Xrotation Yrotation
    JOINT RightLeg
    {
      OFFSET -0.2447 -40.5954 -0.5145
      CHANNELS 6 Xposition Yposition Zposition Zrotation Xrotation Yrotation
      JOINT RightFoot
      {
        OFFSET 0.2447 -42.0479 -2.0602
        CHANNELS 6 Xposition Yposition Zposition Zrotation Xrotation Yrotation
        JOINT RightToeBase
        {
          OFFSET -0.3734 -10.4922 12.6407
          CHANNELS 6 Xposition Yposition Zposition Zrotation Xrotation Yrotation
          End Site
          {
            OFFSET 0 0 9.9925
          }
        }
      }
    }
  }
  JOINT LeftUpLeg
  {
    OFFSET 9.1245 -6.6564 -0.0554
    CHANNELS 6 Xposition Yposition Zposition Zrotation Xrotation Yrotation
    JOINT LeftLeg
    {
      OFFSET 0.2447 -40.5954 -0.517
      CHANNELS 6 Xposition Yposition Zposition Zrotation Xrotation Yrotation
      JOINT LeftFoot
      {
        OFFSET -0.2447 -42.048 -2.0576
        CHANNELS 6 Xposition Yposition Zposition Zrotation Xrotation Yrotation
        JOINT LeftToeBase
        {
          OFFSET 0.3734 -10.4922 12.6407
          CHANNELS 6 Xposition Yposition Zposition Zrotation Xrotation Yrotation
          End Site
          {
            OFFSET 0 0 9.9925
          }
        }
      }
    }
  }
}
MOTION
Frames:	4
Frame Time:	0.0333333
2.84376 94.8344 15.2434 -1.98736 10.2395 1.37428 2.22045e-016 9.9235 -1.2273 1.84159 3.1827 -0.754213 -0.0001 11.6454 -1.4223 1.94661 6.14333 -1.54919 0.0001 13.3602 -1.6265 1.914 6.16668 -1.48001 0 15.0325 0.7929 1.87554 -14.3052 -1.74152 0 10.3218 3.1424 -4.10712 -51.9368 -11.8575 6.1058 9.1104 0.7056 -1.4612 1.0463 -2.56729 12.655 -0.2659 -2.6009 1.73292 22.3499 -57.2452 27.4047 0 -1.42109e-014 1.13808e-005 -5.77901e-007 -77.3766 27.6145 0 7.10543e-015 28.0331 32.0791 -24.3551 12.7755 0 0 -1.63662 -0.0028184 0.197399 3.614 0 0 -10.3567 -0.112617 1.2426 3.4598 0 0 -5.17064 -0.0281257 0.622895 3.7888 -2.167 3.0031 2.22458 -2.95883 -20.7272 3.6754 -2.122 2.122 1.83868 6.3285 26.7275 3.3944 -1.9597 1.9598 3.37275 0.912729 11.0003 12.2666 -0.2317 2.8221 -1.65261 -0.00287504 0.19933 3.892 -1.42109e-014 7.10543e-015 -10.3407 -0.112268 1.2407 3.4152 1.42109e-014 0 -5.17064 -0.028127 0.62289 12.147 0.0099 -2.2166 -1.65261 -0.00287504 0.19933 3.6012 -1.42109e-014 7.10543e-015 -10.3407 -0.112268 1.2407 3.3073 1.42109e-014 0 -5.17064 -0.028127 0.62289 10.9082 -0.2264 -4.7258 -1.1431 0.0169349 4.25363 4.1367 0 0 -10.8328 0.632906 -2.74461 2.5948 0 0 -5.17063 -0.0281255 0.622884 -6.1057 9.1105 0.7056 8.54093 -0.6974 -7.88587 -12.655 -0.266 -2.6009 68.7433 -10.9376 24.2743 -27.4047 0 -3.55271e-015 -3.43001e-006 8.87782e-007 53.7336 -27.6145 7.10543e-015 1.42109e-014 11.9512 61.6332 -10.789 -12.7755 -2.84217e-014 -3.55271e-015 5.85453 -0.0364048 -0.71194 -3.614 0 -3.55271e-015 14.3591 -0.218076 -1.73117 -3.4598 1.42109e-014 0 7.18035 -0.0547373 -0.872402 -3.7888 -2.167 3.0031 -5.19919 -2.34163 5.0808 -3.6754 -2.122 2.122 -1.19446 6.73781 -26.045 -3.3944 -1.9597 1.9598 -2.97004 -0.0443821 -8.62425 -12.2666 -0.2317 2.8221 5.85453 -0.0364048 -0.71194 -3.892 -1.42109e-014 0 14.3591 -0.218076 -1.73117 -3.4152 0 0 7.18035 -0.0547373 -0.872402 -12.147 0.0099 -2.2166 5.85453 -0.0364048 -0.71194 -3.6012 2.84217e-014 -7.10543e-015 14.3591 -0.218076 -1.73117 -3.3073 0 -3.55271e-015 7.18035 -0.0547373 -0.872402 -10.9082 -0.2264 -4.7258 5.85453 -0.0364048 -0.71194 -4.1367 1.42109e-014 7.10543e-015 14.3591 -0.218076 -1.73117 -2.5948 -1.42109e-014 0 7.18035 -0.0547373 -0.872402 -9.1245 -6.6564 -0.0554 -23.3298 -37.7548 -6.97 -0.2447 -40.5954 -0.5145 1.00398 52.4634 -11.1834 0.2447 -42.0479 -2.0602 8.59486 -9.12444 -0.374832 -0.3734 -10.4922 12.6407 5.81286e-006 0.158942 -3.25859e-006 9.1245 -6.6564 -0.0554 20.3441 -36.8143 25.0819 0.2447 -40.5954 -0.517 6.09586 48.9627 -6.32219 -0.2447 -42.048 -2.0576 -7.72672 -3.81931 0.123148 0.3734 -10.4922 12.6407 -0.31657 -9.38292 -0.0505924 
0.22773 93.609 13.0854 -0.79543 15.585 -2.05603 0 9.9235 -1.2273 1.35293 3.87699 -0.584755 -0.0001 11.6454 -1.4223 1.54007 7.46297 -1.34619 0.0001 13.3602 -1.6265 1.49524 7.48333 -1.26306 -8.88178e-016 15.0325 0.7929 0.698381 -14.033 -1.74912 0 10.3218 3.1424 -2.82876 -53.3774 -10.9918 6.1058 9.1104 0.7056 -2.42481 1.19982 -2.40441 12.655 -0.2659 -2.6009 0.861101 17.1342 -54.7834 27.4047 0 0 -1.45755e-005 9.36205e-006 -76.7154 27.6145 -1.42109e-014 7.10543e-015 30.917 31.6018 -27.1121 12.7755 0 -7.10543e-015 -2.55235 -0.00685922 0.307782 3.614 -1.42109e-014 7.10543e-015 -10.3563 -0.112611 1.24257 3.4598 0 0 -5.17048 -0.0281216 0.622869 3.7888 -2.167 3.0031 2.69765 -2.8402 -17.964 3.6754 -2.122 2.122 1.83868 6.3285 26.7275 3.3944 -1.9597 1.9598 3.37275 0.912728 11.0003 12.2666 -0.2317 2.8221 -2.56833 -0.0069427 0.30971 3.892 -1.42109e-014 0 -10.3404 -0.112265 1.24067 3.4152 0 -7.10543e-015 -5.17048 -0.0281213 0.622869 12.147 0.0099 -2.2166 -2.56833 -0.0069427 0.30971 3.6012 -1.42109e-014 0 -10.3404 -0.112265 1.24067 3.3073 0 0 -5.17048 -0.0281213 0.622869 10.9082 -0.2264 -4.7258 -2.05886 0.0138485 4.36405 4.1367 0 0 -10.8325 0.632889 -2.74466 2.5948 1.42109e-014 0 -5.17048 -0.0281223 0.622872 -6.1057 9.1105 0.7056 9.74298 -0.343332 -6.94752 -12.655 -0.266 -2.6009 69.7143 -11.0587 32.815 -27.4047 1.42109e-014 0 -3.86911e-006 5.93649e-006 51.4013 -27.6145 7.10543e-015 0 3.66255 62.0485 -2.18076 -12.7755 2.84217e-014 3.55271e-015 2.08978 -0.00464735 -0.254497 -3.614 -1.42109e-014 -3.55271e-015 12.761 -0.172422 -1.54184 -3.4598 0 3.55271e-015 6.38104 -0.0432428 -0.775731 -3.7888 -2.167 3.0031 -5.60463 -2.10375 2.56366 -3.6754 -2.122 2.122 -1.19443 6.73771 -26.0443 -3.3944 -1.9597 1.9598 -2.97001 -0.0444356 -8.6239 -12.2666 -0.2317 2.8221 2.08978 -0.00464735 -0.254497 -3.892 0 -3.55271e-015 12.761 -0.172422 -1.54184 -3.4152 0 3.55271e-015 6.38104 -0.0432428 -0.775731 -12.147 0.0099 -2.2166 2.08978 -0.00464735 -0.254497 -3.6012 0 3.55271e-015 12.761 -0.172422 -1.54184 -3.3073 0 0 6.38104 -0.0432428 -0.775731 -10.9082 -0.2264 -4.7258 2.08978 -0.00464735 -0.254497 -4.1367 0 -3.55271e-015 12.761 -0.172422 -1.54184 -2.5948 0 1.06581e-014 6.38104 -0.0432428 -0.775731 -9.1245 -6.6564 -0.0554 -23.2984 -42.3609 -7.94894 -0.2447 -40.5954 -0.5145 0.244942 45.4892 -8.13127 0.2447 -42.0479 -2.0602 11.2385 -5.04698 0.187099 -0.3734 -10.4922 12.6407 6.43045e-006 0.158938 3.49641e-006 9.1245 -6.6564 -0.0554 24.627 -43.3681 25.3934 0.2447 -40.5954 -0.517 3.61161 50.7434 -5.05696 -0.2447 -42.048 -2.0576 -8.38574 -3.05173 0.169081 0.3734 -10.4922 12.6407 -1.24461 -9.24433 -0.184238 
-2.56704 91.968 10.8935 0.597764 20.3536 -5.37545 -1.33227e-015 9.9235 -1.2273 0.886321 5.13448 -1.04501 -0.0001 11.6454 -1.4223 1.18061 9.7118 -2.07207 0.0001 13.3602 -1.6265 1.13436 9.72836 -1.99574 -8.88178e-016 15.0325 0.7929 -1.24735 -12.9584 -1.63899 -8.88178e-016 10.3218 3.1424 -0.351918 -56.2688 -8.63785 6.1058 9.1104 0.7056 -2.87342 1.17609 -2.46866 12.655 -0.2659 -2.6009 -1.00662 9.36558 -49.4299 27.4047 0 -1.42109e-014 -2.61508e-005 2.08061e-006 -77.7324 27.6145 -1.42109e-014 7.10543e-015 34.3426 32.7793 -30.2267 12.7755 1.42109e-014 0 -2.57043 -0.00695398 0.309961 3.614 0 0 -10.357 -0.112625 1.24265 3.4598 -1.42109e-014 0 -5.17081 -0.0281291 0.622908 3.7888 -2.167 3.0031 3.24513 -2.67197 -14.7202 3.6754 -2.122 2.122 1.83868 6.3285 26.7275 3.3944 -1.9597 1.9598 3.37275 0.912732 11.0003 12.2666 -0.2317 2.8221 -2.58641 -0.00704154 0.311886 3.892 0 0 -10.341 -0.112274 1.24075 3.4152 0 0 -5.17081 -0.0281308 0.622907 12.147 0.0099 -2.2166 -2.58641 -0.00704154 0.311886 3.6012 0 7.10543e-015 -10.341 -0.112274 1.24075 3.3073 0 -7.10543e-015 -5.17081 -0.0281308 0.622907 10.9082 -0.2264 -4.7258 -2.07694 0.0137702 4.36622 4.1367 1.42109e-014 7.10543e-015 -10.8331 0.632923 -2.74457 2.5948 2.84217e-014 0 -5.17082 -0.028129 0.622908 -6.1057 9.1105 0.7056 10.4919 0.00221734 -4.00476 -12.655 -0.266 -2.6009 70.2447 -11.7422 42.9721 -27.4047 -7.10543e-015 0 1.02124e-005 3.70068e-006 48.4704 -27.6145 -1.42109e-014 0 -6.02088 61.4671 7.85759 -12.7755 1.42109e-014 0 0.0471711 -4.62218e-006 -0.00574598 -3.614 0 7.10543e-015 11.9569 -0.151454 -1.44614 -3.4598 0 0 5.97896 -0.0379657 -0.727017 -3.7888 -2.167 3.0031 -5.89021 -1.92133 0.750356 -3.6754 -2.122 2.122 -1.19444 6.73777 -26.0447 -3.3944 -1.9597 1.9598 -2.97003 -0.0444024 -8.62411 -12.2666 -0.2317 2.8221 0.0471711 -4.62218e-006 -0.00574598 -3.892 1.42109e-014 -7.10543e-015 11.9569 -0.151454 -1.44614 -3.4152 1.42109e-014 7.10543e-015 5.97896 -0.0379657 -0.727017 -12.147 0.0099 -2.2166 0.0471711 -4.62218e-006 -0.00574598 -3.6012 -1.42109e-014 3.55271e-015 11.9569 -0.151454 -1.44614 -3.3073 0 3.55271e-015 5.97896 -0.0379657 -0.727017 -10.9082 -0.2264 -4.7258 0.0471711 -4.62218e-006 -0.00574598 -4.1367 0 -7.10543e-015 11.9569 -0.151454 -1.44614 -2.5948 -1.42109e-014 3.55271e-015 5.97896 -0.0379657 -0.727017 -9.1245 -6.6564 -0.0554 -21.7348 -46.7188 -6.45471 -0.2447 -40.5954 -0.5145 -0.974112 39.5098 -5.49958 0.2447 -42.0479 -2.0602 17.2629 -5.16425 0.146779 -0.3734 -10.4922 12.6407 2.62638e-006 -0.884971 3.94942e-006 9.1245 -6.6564 -0.0554 30.9037 -49.3786 27.3747 0.2447 -40.5954 -0.517 0.661351 53.2183 -1.84713 -0.2447 -42.048 -2.0576 -9.202 -2.26513 0.236143 0.3734 -10.4922 12.6407 -2.08303 -9.56238 -0.302103 
-5.10182 89.8351 8.73725 2.04451 24.9996 -7.78002 0 9.9235 -1.2273 0.752378 6.69414 -1.90278 -0.0001 11.6454 -1.4223 1.17412 12.3541 -3.41843 0.0001 13.3602 -1.6265 1.06534 12.3783 -3.34002 -3.55271e-015 15.0325 0.7929 -2.5215 -11.0514 -1.35292 -3.55271e-015 10.3218 3.1424 2.39123 -59.4547 -5.42449 6.1058 9.1104 0.7056 -2.06178 1.12994 -2.86963 12.655 -0.2659 -2.6009 -4.07271 -0.85737 -43.9608 27.4047 0 7.10543e-015 -4.54771e-005 -9.9263e-006 -78.6153 27.6145 0 7.10543e-015 38.7098 34.3394 -33.8192 12.7755 0 0 -2.56827 -0.00694318 0.309706 3.614 0 7.10543e-015 -10.3557 -0.112598 1.24249 3.4598 0 0 -5.17015 -0.0281183 0.622827 3.7888 -2.167 3.0031 3.83685 -2.45085 -11.1445 3.6754 -2.122 2.122 1.83867 6.32848 26.7274 3.3944 -1.9597 1.9598 3.37275 0.912724 11.0002 12.2666 -0.2317 2.8221 -2.58426 -0.00702862 0.31163 3.892 1.42109e-014 0 -10.3397 -0.112252 1.24059 3.4152 0 0 -5.17015 -0.0281206 0.622828 12.147 0.0099 -2.2166 -2.58426 -0.00702862 0.31163 3.6012 -1.42109e-014 7.10543e-015 -10.3397 -0.112252 1.24059 3.3073 2.84217e-014 0 -5.17015 -0.0281206 0.622828 10.9082 -0.2264 -4.7258 -2.07479 0.0137773 4.36597 4.1367 1.42109e-014 -7.10543e-015 -10.8318 0.632858 -2.74475 2.5948 -1.42109e-014 -7.10543e-015 -5.17015 -0.0281193 0.622828 -6.1057 9.1105 0.7056 10.3724 -0.0157716 -3.04197 -12.655 -0.266 -2.6009 70.6166 -11.4215 54.3685 -27.4047 0 -3.55271e-015 -4.23678e-006 -1.75135e-007 43.7038 -27.6145 0 0 -15.0392 60.1497 16.9178 -12.7755 -1.42109e-014 0 -0.00540089 -4.12362e-007 0.000665297 -3.614 1.42109e-014 -7.10543e-015 11.905 -0.150146 -1.43995 -3.4598 0 -3.55271e-015 5.95298 -0.0376347 -0.723869 -3.7888 -2.167 3.0031 -5.95334 -1.87926 0.34454 -3.6754 -2.122 2.122 -1.19443 6.73775 -26.0445 -3.3944 -1.9597 1.9598 -2.97002 -0.0444207 -8.62402 -12.2666 -0.2317 2.8221 -0.00540089 -4.12362e-007 0.000665297 -3.892 -1.42109e-014 -7.10543e-015 11.905 -0.150146 -1.43995 -3.4152 1.42109e-014 0 5.95298 -0.0376347 -0.723869 -12.147 0.0099 -2.2166 -0.00540089 -4.12362e-007 0.000665297 -3.6012 0 -7.10543e-015 11.905 -0.150146 -1.43995 -3.3073 0 -7.10543e-015 5.95298 -0.0376347 -0.723869 -10.9082 -0.2264 -4.7258 -0.00540089 -4.12362e-007 0.000665297 -4.1367 -1.42109e-014 3.55271e-015 11.905 -0.150146 -1.43995 -2.5948 0 0 5.95298 -0.0376347 -0.723869 -9.1245 -6.6564 -0.0554 -22.5872 -55.1119 -6.75766 -0.2447 -40.5954 -0.5145 -0.332762 43.0317 -5.73998 0.2447 -42.0479 -2.0602 20.0879 -9.44498 0.858458 -0.3734 -10.4922 12.6407 -3.39585e-006 -0.754929 4.01641e-006 9.1245 -6.6564 -0.0554 38.7849 -55.1545 33.2614 0.2447 -40.5954 -0.517 0.941441 55.9863 -1.0372 -0.2447 -42.048 -2.0576 -11.6923 -2.45809 0.265769 0.3734 -10.4922 12.6407 -1.89175 -8.90346 -0.256368 
